G04 #@! TF.FileFunction,Paste,Bot*
%FSLAX46Y46*%
G04 Gerber Fmt 4.6, Leading zero omitted, Abs format (unit mm)*
G04 Created by KiCad (PCBNEW 4.0.7-e2-6376~58~ubuntu16.04.1) date Sun Oct 15 00:03:39 2017*
%MOMM*%
%LPD*%
G01*
G04 APERTURE LIST*
%ADD10C,0.100000*%
%ADD11R,1.250000X1.500000*%
%ADD12R,1.200000X1.200000*%
%ADD13R,2.350000X0.800000*%
%ADD14R,0.500000X1.400000*%
%ADD15O,1.500000X4.000000*%
%ADD16R,1.300000X1.500000*%
%ADD17R,1.500000X1.300000*%
%ADD18R,1.700000X1.000000*%
%ADD19R,1.500000X0.520000*%
%ADD20R,0.520000X1.500000*%
G04 APERTURE END LIST*
D10*
D11*
X85725000Y-96381250D03*
X85725000Y-98881250D03*
X76200000Y-96381250D03*
X76200000Y-98881250D03*
X92868750Y-113050000D03*
X92868750Y-115550000D03*
X92868750Y-103525000D03*
X92868750Y-106025000D03*
X71437500Y-106025000D03*
X71437500Y-103525000D03*
X71437500Y-98881250D03*
X71437500Y-96381250D03*
X71437500Y-115550000D03*
X71437500Y-113050000D03*
X71437500Y-110787500D03*
X71437500Y-108287500D03*
D12*
X42056250Y-102393750D03*
X38906250Y-102393750D03*
X42056250Y-121443750D03*
X38906250Y-121443750D03*
X61106250Y-102393750D03*
X57956250Y-102393750D03*
X61106250Y-121443750D03*
X57956250Y-121443750D03*
D13*
X52681250Y-88859375D03*
X47331250Y-88859375D03*
D14*
X48406250Y-94059375D03*
X49206250Y-94059375D03*
X50006250Y-94059375D03*
X50806250Y-94059375D03*
X51606250Y-94059375D03*
D15*
X46356250Y-91659375D03*
X53656250Y-91659375D03*
D16*
X71500000Y-123850000D03*
X71500000Y-121150000D03*
X92868750Y-110887500D03*
X92868750Y-108187500D03*
D17*
X72468750Y-92868750D03*
X75168750Y-92868750D03*
X79612500Y-92868750D03*
X82312500Y-92868750D03*
D18*
X77812500Y-124534375D03*
X84112500Y-124534375D03*
X77812500Y-120734375D03*
X84112500Y-120734375D03*
D19*
X74912500Y-113537500D03*
X74912500Y-112737500D03*
X74912500Y-111937500D03*
X74912500Y-111137500D03*
X74912500Y-110337500D03*
X74912500Y-109537500D03*
X74912500Y-108737500D03*
X74912500Y-107937500D03*
X74912500Y-107137500D03*
X74912500Y-106337500D03*
X74912500Y-105537500D03*
D20*
X76962500Y-103487500D03*
X77762500Y-103487500D03*
X78562500Y-103487500D03*
X79362500Y-103487500D03*
X80162500Y-103487500D03*
X80962500Y-103487500D03*
X81762500Y-103487500D03*
X82562500Y-103487500D03*
X83362500Y-103487500D03*
X84162500Y-103487500D03*
X84962500Y-103487500D03*
D19*
X87012500Y-105537500D03*
X87012500Y-106337500D03*
X87012500Y-107137500D03*
X87012500Y-107937500D03*
X87012500Y-108737500D03*
X87012500Y-109537500D03*
X87012500Y-110337500D03*
X87012500Y-111137500D03*
X87012500Y-111937500D03*
X87012500Y-112737500D03*
X87012500Y-113537500D03*
D20*
X84962500Y-115587500D03*
X84162500Y-115587500D03*
X83362500Y-115587500D03*
X82562500Y-115587500D03*
X81762500Y-115587500D03*
X80962500Y-115587500D03*
X80162500Y-115587500D03*
X79362500Y-115587500D03*
X78562500Y-115587500D03*
X77762500Y-115587500D03*
X76962500Y-115587500D03*
D10*
G36*
X82376714Y-96499879D02*
X83225242Y-97348407D01*
X82235292Y-98338357D01*
X81386764Y-97489829D01*
X82376714Y-96499879D01*
X82376714Y-96499879D01*
G37*
G36*
X80821079Y-98055514D02*
X81669607Y-98904042D01*
X80679657Y-99893992D01*
X79831129Y-99045464D01*
X80821079Y-98055514D01*
X80821079Y-98055514D01*
G37*
G36*
X81245343Y-95368508D02*
X82093871Y-96217036D01*
X81103921Y-97206986D01*
X80255393Y-96358458D01*
X81245343Y-95368508D01*
X81245343Y-95368508D01*
G37*
G36*
X79689708Y-96924143D02*
X80538236Y-97772671D01*
X79548286Y-98762621D01*
X78699758Y-97914093D01*
X79689708Y-96924143D01*
X79689708Y-96924143D01*
G37*
M02*
