M48
;DRILL file {KiCad 4.0.7-e2-6376~58~ubuntu16.04.1} date Sun Oct 15 00:04:30 2017
;FORMAT={-:-/ absolute / inch / decimal}
FMAT,2
INCH,TZ
T1C0.016
T2C0.028
T3C0.059
%
G90
G05
M72
T1
X1.8996Y-4.0945
X2.0571Y-4.8031
X2.0571Y-4.9114
X2.1358Y-4.124
X2.1358Y-4.2618
X2.185Y-4.0945
X2.2441Y-4.7146
X2.2539Y-4.1142
X2.5689Y-4.1339
X2.6083Y-4.2224
X2.7067Y-4.8819
X2.7264Y-4.3996
X2.7264Y-4.9114
X2.7362Y-4.2323
X2.8642Y-4.7835
X2.8642Y-4.8425
X2.874Y-4.3996
X2.8839Y-4.6555
X2.8937Y-4.6949
X3.0217Y-4.3602
X3.0413Y-4.7146
X3.061Y-4.1339
X3.0906Y-4.4882
X3.1201Y-4.311
X3.1201Y-4.872
X3.1693Y-3.8189
X3.1791Y-4.252
X3.189Y-3.7106
X3.1988Y-3.8681
X3.2776Y-3.7205
X3.3661Y-4.1535
X3.4547Y-4.1142
X3.4843Y-4.1535
X3.6122Y-4.1732
T2
X1.4402Y-4.0312
X1.4402Y-4.7812
X1.7473Y-4.0312
X1.7473Y-4.7812
X2.1902Y-4.0312
X2.1902Y-4.7812
X2.4973Y-4.0312
X2.4973Y-4.7812
T2
X1.825Y-3.5594G85X1.825Y-3.6578
G05
X2.1125Y-3.5594G85X2.1125Y-3.6578
G05
T3
X1.4757Y-3.6863G85X1.4437Y-3.7437
G05
X1.4757Y-4.4363G85X1.4437Y-4.4937
G05
X1.6937Y-3.6438G85X1.6922Y-3.6666
G05
X1.6937Y-4.3938G85X1.6922Y-4.4166
G05
X2.2257Y-3.6863G85X2.1937Y-3.7437
G05
X2.2257Y-4.4363G85X2.1937Y-4.4937
G05
X2.4437Y-3.6438G85X2.4422Y-3.6666
G05
X2.4437Y-4.3938G85X2.4422Y-4.4166
G05
T0
M30
