G04 #@! TF.FileFunction,Legend,Bot*
%FSLAX46Y46*%
G04 Gerber Fmt 4.6, Leading zero omitted, Abs format (unit mm)*
G04 Created by KiCad (PCBNEW 4.0.7-e2-6376~58~ubuntu16.04.1) date Sun Oct 15 00:03:39 2017*
%MOMM*%
%LPD*%
G01*
G04 APERTURE LIST*
%ADD10C,0.100000*%
%ADD11C,0.300000*%
%ADD12C,0.120000*%
%ADD13C,0.200000*%
%ADD14C,0.150000*%
G04 APERTURE END LIST*
D10*
D11*
X50749999Y-108107143D02*
X50535713Y-108178571D01*
X50178570Y-108178571D01*
X50035713Y-108107143D01*
X49964284Y-108035714D01*
X49892856Y-107892857D01*
X49892856Y-107750000D01*
X49964284Y-107607143D01*
X50035713Y-107535714D01*
X50178570Y-107464286D01*
X50464284Y-107392857D01*
X50607142Y-107321429D01*
X50678570Y-107250000D01*
X50749999Y-107107143D01*
X50749999Y-106964286D01*
X50678570Y-106821429D01*
X50607142Y-106750000D01*
X50464284Y-106678571D01*
X50107142Y-106678571D01*
X49892856Y-106750000D01*
X49464285Y-107178571D02*
X48892856Y-107178571D01*
X49249999Y-106678571D02*
X49249999Y-107964286D01*
X49178571Y-108107143D01*
X49035713Y-108178571D01*
X48892856Y-108178571D01*
X47821428Y-108107143D02*
X47964285Y-108178571D01*
X48249999Y-108178571D01*
X48392856Y-108107143D01*
X48464285Y-107964286D01*
X48464285Y-107392857D01*
X48392856Y-107250000D01*
X48249999Y-107178571D01*
X47964285Y-107178571D01*
X47821428Y-107250000D01*
X47749999Y-107392857D01*
X47749999Y-107535714D01*
X48464285Y-107678571D01*
X47321428Y-107178571D02*
X46749999Y-107178571D01*
X47107142Y-108178571D02*
X47107142Y-106892857D01*
X47035714Y-106750000D01*
X46892856Y-106678571D01*
X46749999Y-106678571D01*
X45107142Y-108178571D02*
X45107142Y-106678571D01*
X44749999Y-106678571D01*
X44535714Y-106750000D01*
X44392856Y-106892857D01*
X44321428Y-107035714D01*
X44249999Y-107321429D01*
X44249999Y-107535714D01*
X44321428Y-107821429D01*
X44392856Y-107964286D01*
X44535714Y-108107143D01*
X44749999Y-108178571D01*
X45107142Y-108178571D01*
X43535714Y-106678571D02*
X43678571Y-106964286D01*
X42892856Y-108178571D02*
X42892856Y-106678571D01*
X42249999Y-108178571D02*
X42249999Y-107392857D01*
X42321428Y-107250000D01*
X42464285Y-107178571D01*
X42678570Y-107178571D01*
X42821428Y-107250000D01*
X42892856Y-107321429D01*
X40892856Y-108178571D02*
X40892856Y-107392857D01*
X40964285Y-107250000D01*
X41107142Y-107178571D01*
X41392856Y-107178571D01*
X41535713Y-107250000D01*
X40892856Y-108107143D02*
X41035713Y-108178571D01*
X41392856Y-108178571D01*
X41535713Y-108107143D01*
X41607142Y-107964286D01*
X41607142Y-107821429D01*
X41535713Y-107678571D01*
X41392856Y-107607143D01*
X41035713Y-107607143D01*
X40892856Y-107535714D01*
X39607142Y-108107143D02*
X39749999Y-108178571D01*
X40035713Y-108178571D01*
X40178570Y-108107143D01*
X40249999Y-107964286D01*
X40249999Y-107392857D01*
X40178570Y-107250000D01*
X40035713Y-107178571D01*
X39749999Y-107178571D01*
X39607142Y-107250000D01*
X39535713Y-107392857D01*
X39535713Y-107535714D01*
X40249999Y-107678571D01*
X38964285Y-108107143D02*
X38821428Y-108178571D01*
X38535713Y-108178571D01*
X38392856Y-108107143D01*
X38321428Y-107964286D01*
X38321428Y-107892857D01*
X38392856Y-107750000D01*
X38535713Y-107678571D01*
X38749999Y-107678571D01*
X38892856Y-107607143D01*
X38964285Y-107464286D01*
X38964285Y-107392857D01*
X38892856Y-107250000D01*
X38749999Y-107178571D01*
X38535713Y-107178571D01*
X38392856Y-107250000D01*
X37107142Y-108107143D02*
X37249999Y-108178571D01*
X37535713Y-108178571D01*
X37678570Y-108107143D01*
X37749999Y-107964286D01*
X37749999Y-107392857D01*
X37678570Y-107250000D01*
X37535713Y-107178571D01*
X37249999Y-107178571D01*
X37107142Y-107250000D01*
X37035713Y-107392857D01*
X37035713Y-107535714D01*
X37749999Y-107678571D01*
X36178570Y-108178571D02*
X36321428Y-108107143D01*
X36392856Y-107964286D01*
X36392856Y-106678571D01*
X35035714Y-108107143D02*
X35178571Y-108178571D01*
X35464285Y-108178571D01*
X35607142Y-108107143D01*
X35678571Y-107964286D01*
X35678571Y-107392857D01*
X35607142Y-107250000D01*
X35464285Y-107178571D01*
X35178571Y-107178571D01*
X35035714Y-107250000D01*
X34964285Y-107392857D01*
X34964285Y-107535714D01*
X35678571Y-107678571D01*
X33750000Y-108107143D02*
X33892857Y-108178571D01*
X34178571Y-108178571D01*
X34321428Y-108107143D01*
X34392857Y-107964286D01*
X34392857Y-107392857D01*
X34321428Y-107250000D01*
X34178571Y-107178571D01*
X33892857Y-107178571D01*
X33750000Y-107250000D01*
X33678571Y-107392857D01*
X33678571Y-107535714D01*
X34392857Y-107678571D01*
X33035714Y-108178571D02*
X33035714Y-107178571D01*
X33035714Y-107464286D02*
X32964286Y-107321429D01*
X32892857Y-107250000D01*
X32750000Y-107178571D01*
X32607143Y-107178571D01*
D12*
X84875000Y-98131250D02*
X84875000Y-97131250D01*
X86575000Y-97131250D02*
X86575000Y-98131250D01*
X75350000Y-98131250D02*
X75350000Y-97131250D01*
X77050000Y-97131250D02*
X77050000Y-98131250D01*
X92018750Y-114800000D02*
X92018750Y-113800000D01*
X93718750Y-113800000D02*
X93718750Y-114800000D01*
X92018750Y-105275000D02*
X92018750Y-104275000D01*
X93718750Y-104275000D02*
X93718750Y-105275000D01*
X72287500Y-104275000D02*
X72287500Y-105275000D01*
X70587500Y-105275000D02*
X70587500Y-104275000D01*
X72287500Y-97131250D02*
X72287500Y-98131250D01*
X70587500Y-98131250D02*
X70587500Y-97131250D01*
X72287500Y-113800000D02*
X72287500Y-114800000D01*
X70587500Y-114800000D02*
X70587500Y-113800000D01*
X72287500Y-109037500D02*
X72287500Y-110037500D01*
X70587500Y-110037500D02*
X70587500Y-109037500D01*
D13*
X38206250Y-103593750D02*
X38206250Y-101193750D01*
X38031250Y-103593750D02*
X38031250Y-101193750D01*
X37856250Y-103593750D02*
X37856250Y-101193750D01*
X37456250Y-101193750D02*
X37456250Y-103593750D01*
X37681250Y-103593750D02*
X37681250Y-101193750D01*
X37556250Y-103593750D02*
X37556250Y-101193750D01*
X37481250Y-103593750D02*
X43281250Y-103593750D01*
X43281250Y-103593750D02*
X43281250Y-101193750D01*
X43281250Y-101193750D02*
X37481250Y-101193750D01*
X38206250Y-122643750D02*
X38206250Y-120243750D01*
X38031250Y-122643750D02*
X38031250Y-120243750D01*
X37856250Y-122643750D02*
X37856250Y-120243750D01*
X37456250Y-120243750D02*
X37456250Y-122643750D01*
X37681250Y-122643750D02*
X37681250Y-120243750D01*
X37556250Y-122643750D02*
X37556250Y-120243750D01*
X37481250Y-122643750D02*
X43281250Y-122643750D01*
X43281250Y-122643750D02*
X43281250Y-120243750D01*
X43281250Y-120243750D02*
X37481250Y-120243750D01*
X57256250Y-103593750D02*
X57256250Y-101193750D01*
X57081250Y-103593750D02*
X57081250Y-101193750D01*
X56906250Y-103593750D02*
X56906250Y-101193750D01*
X56506250Y-101193750D02*
X56506250Y-103593750D01*
X56731250Y-103593750D02*
X56731250Y-101193750D01*
X56606250Y-103593750D02*
X56606250Y-101193750D01*
X56531250Y-103593750D02*
X62331250Y-103593750D01*
X62331250Y-103593750D02*
X62331250Y-101193750D01*
X62331250Y-101193750D02*
X56531250Y-101193750D01*
X57256250Y-122643750D02*
X57256250Y-120243750D01*
X57081250Y-122643750D02*
X57081250Y-120243750D01*
X56906250Y-122643750D02*
X56906250Y-120243750D01*
X56506250Y-120243750D02*
X56506250Y-122643750D01*
X56731250Y-122643750D02*
X56731250Y-120243750D01*
X56606250Y-122643750D02*
X56606250Y-120243750D01*
X56531250Y-122643750D02*
X62331250Y-122643750D01*
X62331250Y-122643750D02*
X62331250Y-120243750D01*
X62331250Y-120243750D02*
X56531250Y-120243750D01*
X53856250Y-94459375D02*
X53856250Y-87959375D01*
X46156250Y-94459375D02*
X46156250Y-87959375D01*
X46156250Y-94459375D02*
X53856250Y-94459375D01*
D12*
X70620000Y-121900000D02*
X70620000Y-123100000D01*
X72380000Y-123100000D02*
X72380000Y-121900000D01*
X91988750Y-108937500D02*
X91988750Y-110137500D01*
X93748750Y-110137500D02*
X93748750Y-108937500D01*
X74418750Y-91988750D02*
X73218750Y-91988750D01*
X73218750Y-93748750D02*
X74418750Y-93748750D01*
X81562500Y-91988750D02*
X80362500Y-91988750D01*
X80362500Y-93748750D02*
X81562500Y-93748750D01*
X79262500Y-120334375D02*
X79712500Y-119884375D01*
X82662500Y-120334375D02*
X82212500Y-119884375D01*
X82662500Y-124934375D02*
X82212500Y-125384375D01*
X79262500Y-124934375D02*
X79712500Y-125384375D01*
X83712500Y-123634375D02*
X83712500Y-121634375D01*
X79712500Y-119884375D02*
X82212500Y-119884375D01*
X78212500Y-123634375D02*
X78212500Y-121634375D01*
X79712500Y-125384375D02*
X82212500Y-125384375D01*
D14*
X75787500Y-114712500D02*
X75787500Y-114137500D01*
X86137500Y-114712500D02*
X86137500Y-114037500D01*
X86137500Y-104362500D02*
X86137500Y-105037500D01*
X75787500Y-104362500D02*
X75787500Y-105037500D01*
X75787500Y-114712500D02*
X76462500Y-114712500D01*
X75787500Y-104362500D02*
X76462500Y-104362500D01*
X86137500Y-104362500D02*
X85462500Y-104362500D01*
X86137500Y-114712500D02*
X85462500Y-114712500D01*
X75787500Y-114137500D02*
X74512500Y-114137500D01*
X81881739Y-98409067D02*
X81174632Y-97701961D01*
X82023160Y-98409067D02*
X81740317Y-98691910D01*
X80184683Y-96570590D02*
X79901840Y-96853433D01*
X84332143Y-97464584D02*
X84379762Y-97416965D01*
X84427381Y-97274108D01*
X84427381Y-97178870D01*
X84379762Y-97036012D01*
X84284524Y-96940774D01*
X84189286Y-96893155D01*
X83998810Y-96845536D01*
X83855952Y-96845536D01*
X83665476Y-96893155D01*
X83570238Y-96940774D01*
X83475000Y-97036012D01*
X83427381Y-97178870D01*
X83427381Y-97274108D01*
X83475000Y-97416965D01*
X83522619Y-97464584D01*
X84427381Y-98416965D02*
X84427381Y-97845536D01*
X84427381Y-98131250D02*
X83427381Y-98131250D01*
X83570238Y-98036012D01*
X83665476Y-97940774D01*
X83713095Y-97845536D01*
X74807143Y-97464584D02*
X74854762Y-97416965D01*
X74902381Y-97274108D01*
X74902381Y-97178870D01*
X74854762Y-97036012D01*
X74759524Y-96940774D01*
X74664286Y-96893155D01*
X74473810Y-96845536D01*
X74330952Y-96845536D01*
X74140476Y-96893155D01*
X74045238Y-96940774D01*
X73950000Y-97036012D01*
X73902381Y-97178870D01*
X73902381Y-97274108D01*
X73950000Y-97416965D01*
X73997619Y-97464584D01*
X73997619Y-97845536D02*
X73950000Y-97893155D01*
X73902381Y-97988393D01*
X73902381Y-98226489D01*
X73950000Y-98321727D01*
X73997619Y-98369346D01*
X74092857Y-98416965D01*
X74188095Y-98416965D01*
X74330952Y-98369346D01*
X74902381Y-97797917D01*
X74902381Y-98416965D01*
X91475893Y-114133334D02*
X91523512Y-114085715D01*
X91571131Y-113942858D01*
X91571131Y-113847620D01*
X91523512Y-113704762D01*
X91428274Y-113609524D01*
X91333036Y-113561905D01*
X91142560Y-113514286D01*
X90999702Y-113514286D01*
X90809226Y-113561905D01*
X90713988Y-113609524D01*
X90618750Y-113704762D01*
X90571131Y-113847620D01*
X90571131Y-113942858D01*
X90618750Y-114085715D01*
X90666369Y-114133334D01*
X90571131Y-114466667D02*
X90571131Y-115085715D01*
X90952083Y-114752381D01*
X90952083Y-114895239D01*
X90999702Y-114990477D01*
X91047321Y-115038096D01*
X91142560Y-115085715D01*
X91380655Y-115085715D01*
X91475893Y-115038096D01*
X91523512Y-114990477D01*
X91571131Y-114895239D01*
X91571131Y-114609524D01*
X91523512Y-114514286D01*
X91475893Y-114466667D01*
X91475893Y-104608334D02*
X91523512Y-104560715D01*
X91571131Y-104417858D01*
X91571131Y-104322620D01*
X91523512Y-104179762D01*
X91428274Y-104084524D01*
X91333036Y-104036905D01*
X91142560Y-103989286D01*
X90999702Y-103989286D01*
X90809226Y-104036905D01*
X90713988Y-104084524D01*
X90618750Y-104179762D01*
X90571131Y-104322620D01*
X90571131Y-104417858D01*
X90618750Y-104560715D01*
X90666369Y-104608334D01*
X90904464Y-105465477D02*
X91571131Y-105465477D01*
X90523512Y-105227381D02*
X91237798Y-104989286D01*
X91237798Y-105608334D01*
X73544643Y-104608334D02*
X73592262Y-104560715D01*
X73639881Y-104417858D01*
X73639881Y-104322620D01*
X73592262Y-104179762D01*
X73497024Y-104084524D01*
X73401786Y-104036905D01*
X73211310Y-103989286D01*
X73068452Y-103989286D01*
X72877976Y-104036905D01*
X72782738Y-104084524D01*
X72687500Y-104179762D01*
X72639881Y-104322620D01*
X72639881Y-104417858D01*
X72687500Y-104560715D01*
X72735119Y-104608334D01*
X72639881Y-105513096D02*
X72639881Y-105036905D01*
X73116071Y-104989286D01*
X73068452Y-105036905D01*
X73020833Y-105132143D01*
X73020833Y-105370239D01*
X73068452Y-105465477D01*
X73116071Y-105513096D01*
X73211310Y-105560715D01*
X73449405Y-105560715D01*
X73544643Y-105513096D01*
X73592262Y-105465477D01*
X73639881Y-105370239D01*
X73639881Y-105132143D01*
X73592262Y-105036905D01*
X73544643Y-104989286D01*
X73544643Y-97464584D02*
X73592262Y-97416965D01*
X73639881Y-97274108D01*
X73639881Y-97178870D01*
X73592262Y-97036012D01*
X73497024Y-96940774D01*
X73401786Y-96893155D01*
X73211310Y-96845536D01*
X73068452Y-96845536D01*
X72877976Y-96893155D01*
X72782738Y-96940774D01*
X72687500Y-97036012D01*
X72639881Y-97178870D01*
X72639881Y-97274108D01*
X72687500Y-97416965D01*
X72735119Y-97464584D01*
X72639881Y-98321727D02*
X72639881Y-98131250D01*
X72687500Y-98036012D01*
X72735119Y-97988393D01*
X72877976Y-97893155D01*
X73068452Y-97845536D01*
X73449405Y-97845536D01*
X73544643Y-97893155D01*
X73592262Y-97940774D01*
X73639881Y-98036012D01*
X73639881Y-98226489D01*
X73592262Y-98321727D01*
X73544643Y-98369346D01*
X73449405Y-98416965D01*
X73211310Y-98416965D01*
X73116071Y-98369346D01*
X73068452Y-98321727D01*
X73020833Y-98226489D01*
X73020833Y-98036012D01*
X73068452Y-97940774D01*
X73116071Y-97893155D01*
X73211310Y-97845536D01*
X73544643Y-114133334D02*
X73592262Y-114085715D01*
X73639881Y-113942858D01*
X73639881Y-113847620D01*
X73592262Y-113704762D01*
X73497024Y-113609524D01*
X73401786Y-113561905D01*
X73211310Y-113514286D01*
X73068452Y-113514286D01*
X72877976Y-113561905D01*
X72782738Y-113609524D01*
X72687500Y-113704762D01*
X72639881Y-113847620D01*
X72639881Y-113942858D01*
X72687500Y-114085715D01*
X72735119Y-114133334D01*
X72639881Y-114466667D02*
X72639881Y-115133334D01*
X73639881Y-114704762D01*
X73544643Y-109370834D02*
X73592262Y-109323215D01*
X73639881Y-109180358D01*
X73639881Y-109085120D01*
X73592262Y-108942262D01*
X73497024Y-108847024D01*
X73401786Y-108799405D01*
X73211310Y-108751786D01*
X73068452Y-108751786D01*
X72877976Y-108799405D01*
X72782738Y-108847024D01*
X72687500Y-108942262D01*
X72639881Y-109085120D01*
X72639881Y-109180358D01*
X72687500Y-109323215D01*
X72735119Y-109370834D01*
X73068452Y-109942262D02*
X73020833Y-109847024D01*
X72973214Y-109799405D01*
X72877976Y-109751786D01*
X72830357Y-109751786D01*
X72735119Y-109799405D01*
X72687500Y-109847024D01*
X72639881Y-109942262D01*
X72639881Y-110132739D01*
X72687500Y-110227977D01*
X72735119Y-110275596D01*
X72830357Y-110323215D01*
X72877976Y-110323215D01*
X72973214Y-110275596D01*
X73020833Y-110227977D01*
X73068452Y-110132739D01*
X73068452Y-109942262D01*
X73116071Y-109847024D01*
X73163690Y-109799405D01*
X73258929Y-109751786D01*
X73449405Y-109751786D01*
X73544643Y-109799405D01*
X73592262Y-109847024D01*
X73639881Y-109942262D01*
X73639881Y-110132739D01*
X73592262Y-110227977D01*
X73544643Y-110275596D01*
X73449405Y-110323215D01*
X73258929Y-110323215D01*
X73163690Y-110275596D01*
X73116071Y-110227977D01*
X73068452Y-110132739D01*
X41071726Y-100830655D02*
X41071726Y-100030655D01*
X40881250Y-100030655D01*
X40766964Y-100068750D01*
X40690773Y-100144940D01*
X40652678Y-100221131D01*
X40614583Y-100373512D01*
X40614583Y-100487798D01*
X40652678Y-100640179D01*
X40690773Y-100716369D01*
X40766964Y-100792560D01*
X40881250Y-100830655D01*
X41071726Y-100830655D01*
X39852678Y-100830655D02*
X40309821Y-100830655D01*
X40081250Y-100830655D02*
X40081250Y-100030655D01*
X40157440Y-100144940D01*
X40233631Y-100221131D01*
X40309821Y-100259226D01*
X41071726Y-119880655D02*
X41071726Y-119080655D01*
X40881250Y-119080655D01*
X40766964Y-119118750D01*
X40690773Y-119194940D01*
X40652678Y-119271131D01*
X40614583Y-119423512D01*
X40614583Y-119537798D01*
X40652678Y-119690179D01*
X40690773Y-119766369D01*
X40766964Y-119842560D01*
X40881250Y-119880655D01*
X41071726Y-119880655D01*
X40309821Y-119156845D02*
X40271726Y-119118750D01*
X40195535Y-119080655D01*
X40005059Y-119080655D01*
X39928869Y-119118750D01*
X39890773Y-119156845D01*
X39852678Y-119233036D01*
X39852678Y-119309226D01*
X39890773Y-119423512D01*
X40347916Y-119880655D01*
X39852678Y-119880655D01*
X60121726Y-100830655D02*
X60121726Y-100030655D01*
X59931250Y-100030655D01*
X59816964Y-100068750D01*
X59740773Y-100144940D01*
X59702678Y-100221131D01*
X59664583Y-100373512D01*
X59664583Y-100487798D01*
X59702678Y-100640179D01*
X59740773Y-100716369D01*
X59816964Y-100792560D01*
X59931250Y-100830655D01*
X60121726Y-100830655D01*
X59397916Y-100030655D02*
X58902678Y-100030655D01*
X59169345Y-100335417D01*
X59055059Y-100335417D01*
X58978869Y-100373512D01*
X58940773Y-100411607D01*
X58902678Y-100487798D01*
X58902678Y-100678274D01*
X58940773Y-100754464D01*
X58978869Y-100792560D01*
X59055059Y-100830655D01*
X59283631Y-100830655D01*
X59359821Y-100792560D01*
X59397916Y-100754464D01*
X60121726Y-119880655D02*
X60121726Y-119080655D01*
X59931250Y-119080655D01*
X59816964Y-119118750D01*
X59740773Y-119194940D01*
X59702678Y-119271131D01*
X59664583Y-119423512D01*
X59664583Y-119537798D01*
X59702678Y-119690179D01*
X59740773Y-119766369D01*
X59816964Y-119842560D01*
X59931250Y-119880655D01*
X60121726Y-119880655D01*
X58978869Y-119347321D02*
X58978869Y-119880655D01*
X59169345Y-119042560D02*
X59359821Y-119613988D01*
X58864583Y-119613988D01*
D13*
X41219345Y-102401631D02*
X41219345Y-101401631D01*
X40647916Y-102401631D02*
X41076488Y-101830202D01*
X40647916Y-101401631D02*
X41219345Y-101973060D01*
X39695535Y-102401631D02*
X40266964Y-102401631D01*
X39981250Y-102401631D02*
X39981250Y-101401631D01*
X40076488Y-101544488D01*
X40171726Y-101639726D01*
X40266964Y-101687345D01*
X41219345Y-121451631D02*
X41219345Y-120451631D01*
X40647916Y-121451631D02*
X41076488Y-120880202D01*
X40647916Y-120451631D02*
X41219345Y-121023060D01*
X40266964Y-120546869D02*
X40219345Y-120499250D01*
X40124107Y-120451631D01*
X39886011Y-120451631D01*
X39790773Y-120499250D01*
X39743154Y-120546869D01*
X39695535Y-120642107D01*
X39695535Y-120737345D01*
X39743154Y-120880202D01*
X40314583Y-121451631D01*
X39695535Y-121451631D01*
X60269345Y-102401631D02*
X60269345Y-101401631D01*
X59697916Y-102401631D02*
X60126488Y-101830202D01*
X59697916Y-101401631D02*
X60269345Y-101973060D01*
X59364583Y-101401631D02*
X58745535Y-101401631D01*
X59078869Y-101782583D01*
X58936011Y-101782583D01*
X58840773Y-101830202D01*
X58793154Y-101877821D01*
X58745535Y-101973060D01*
X58745535Y-102211155D01*
X58793154Y-102306393D01*
X58840773Y-102354012D01*
X58936011Y-102401631D01*
X59221726Y-102401631D01*
X59316964Y-102354012D01*
X59364583Y-102306393D01*
X60269345Y-121451631D02*
X60269345Y-120451631D01*
X59697916Y-121451631D02*
X60126488Y-120880202D01*
X59697916Y-120451631D02*
X60269345Y-121023060D01*
X58840773Y-120784964D02*
X58840773Y-121451631D01*
X59078869Y-120404012D02*
X59316964Y-121118298D01*
X58697916Y-121118298D01*
D14*
X74333631Y-122333334D02*
X73857440Y-122000000D01*
X74333631Y-121761905D02*
X73333631Y-121761905D01*
X73333631Y-122142858D01*
X73381250Y-122238096D01*
X73428869Y-122285715D01*
X73524107Y-122333334D01*
X73666964Y-122333334D01*
X73762202Y-122285715D01*
X73809821Y-122238096D01*
X73857440Y-122142858D01*
X73857440Y-121761905D01*
X74333631Y-123285715D02*
X74333631Y-122714286D01*
X74333631Y-123000000D02*
X73333631Y-123000000D01*
X73476488Y-122904762D01*
X73571726Y-122809524D01*
X73619345Y-122714286D01*
X95021131Y-109370834D02*
X94544940Y-109037500D01*
X95021131Y-108799405D02*
X94021131Y-108799405D01*
X94021131Y-109180358D01*
X94068750Y-109275596D01*
X94116369Y-109323215D01*
X94211607Y-109370834D01*
X94354464Y-109370834D01*
X94449702Y-109323215D01*
X94497321Y-109275596D01*
X94544940Y-109180358D01*
X94544940Y-108799405D01*
X94116369Y-109751786D02*
X94068750Y-109799405D01*
X94021131Y-109894643D01*
X94021131Y-110132739D01*
X94068750Y-110227977D01*
X94116369Y-110275596D01*
X94211607Y-110323215D01*
X94306845Y-110323215D01*
X94449702Y-110275596D01*
X95021131Y-109704167D01*
X95021131Y-110323215D01*
X73985416Y-95021131D02*
X74318750Y-94544940D01*
X74556845Y-95021131D02*
X74556845Y-94021131D01*
X74175892Y-94021131D01*
X74080654Y-94068750D01*
X74033035Y-94116369D01*
X73985416Y-94211607D01*
X73985416Y-94354464D01*
X74033035Y-94449702D01*
X74080654Y-94497321D01*
X74175892Y-94544940D01*
X74556845Y-94544940D01*
X73652083Y-94021131D02*
X73033035Y-94021131D01*
X73366369Y-94402083D01*
X73223511Y-94402083D01*
X73128273Y-94449702D01*
X73080654Y-94497321D01*
X73033035Y-94592560D01*
X73033035Y-94830655D01*
X73080654Y-94925893D01*
X73128273Y-94973512D01*
X73223511Y-95021131D01*
X73509226Y-95021131D01*
X73604464Y-94973512D01*
X73652083Y-94925893D01*
X81129166Y-95021131D02*
X81462500Y-94544940D01*
X81700595Y-95021131D02*
X81700595Y-94021131D01*
X81319642Y-94021131D01*
X81224404Y-94068750D01*
X81176785Y-94116369D01*
X81129166Y-94211607D01*
X81129166Y-94354464D01*
X81176785Y-94449702D01*
X81224404Y-94497321D01*
X81319642Y-94544940D01*
X81700595Y-94544940D01*
X80272023Y-94354464D02*
X80272023Y-95021131D01*
X80510119Y-93973512D02*
X80748214Y-94687798D01*
X80129166Y-94687798D01*
X82295833Y-126789137D02*
X82152976Y-126836756D01*
X81914880Y-126836756D01*
X81819642Y-126789137D01*
X81772023Y-126741518D01*
X81724404Y-126646280D01*
X81724404Y-126551042D01*
X81772023Y-126455804D01*
X81819642Y-126408185D01*
X81914880Y-126360565D01*
X82105357Y-126312946D01*
X82200595Y-126265327D01*
X82248214Y-126217708D01*
X82295833Y-126122470D01*
X82295833Y-126027232D01*
X82248214Y-125931994D01*
X82200595Y-125884375D01*
X82105357Y-125836756D01*
X81867261Y-125836756D01*
X81724404Y-125884375D01*
X81391071Y-125836756D02*
X81152976Y-126836756D01*
X80962499Y-126122470D01*
X80772023Y-126836756D01*
X80533928Y-125836756D01*
X79629166Y-126836756D02*
X80200595Y-126836756D01*
X79914881Y-126836756D02*
X79914881Y-125836756D01*
X80010119Y-125979613D01*
X80105357Y-126074851D01*
X80200595Y-126122470D01*
X81724405Y-116789881D02*
X81724405Y-117599405D01*
X81676786Y-117694643D01*
X81629167Y-117742262D01*
X81533929Y-117789881D01*
X81343452Y-117789881D01*
X81248214Y-117742262D01*
X81200595Y-117694643D01*
X81152976Y-117599405D01*
X81152976Y-116789881D01*
X80152976Y-117789881D02*
X80724405Y-117789881D01*
X80438691Y-117789881D02*
X80438691Y-116789881D01*
X80533929Y-116932738D01*
X80629167Y-117027976D01*
X80724405Y-117075595D01*
X79592060Y-94974549D02*
X79827762Y-96153061D01*
X79120655Y-95445954D02*
X80299167Y-95681656D01*
X79187998Y-96792824D02*
X79592060Y-96388763D01*
X79390029Y-96590793D02*
X78682923Y-95883686D01*
X78851281Y-95917358D01*
X78985968Y-95917358D01*
X79086983Y-95883686D01*
M02*
